{"title":"Paramore - Monster [Music Video] 720p [Sbyky]","uid":10090176,"size":51460974,"categoryP":"video","categoryS":"music_videos","magnet":"?xt=urn:btih:274f65335e5ca4ae2373fdb6890db02303b889cd&amp;dn=Paramore+-+Monster+%5BMusic+Video%5D+720p+%5BSbyky%5D&amp;tr=udp%3A%2F%2Ftracker.openbittorrent.com%3A80&amp;tr=udp%3A%2F%2Fopen.demonii.com%3A1337&amp;tr=udp%3A%2F%2Ftracker.coppersurfer.tk%3A6969&amp;tr=udp%3A%2F%2Fexodus.desync.com%3A6969","seeders":6,"leechers":0,"uploader":"Sbyky","files":1,"time":1399180575,"description":"\n\nGeneral\nComplete name                            : Paramore - Monster [Music Video] 720p [Sbyky].mp4\nFormat                                   : MPEG-4\nFormat profile                           : Base Media\nCodec ID                                 : isom\nFile size                                : 49.1 MiB\nDuration                                 : 3mn 20s\nOverall bit rate mode                    : Variable\nOverall bit rate                         : 2 052 Kbps\nEncoded date                             : UTC 2014-03-07 16:11:44\nTagged date                              : UTC 2014-03-07 16:11:44\n\nVideo\nID                                       : 1\nFormat                                   : AVC\nFormat/Info                              : Advanced Video Codec\nFormat profile                           : &lt;a class=&quot;__cf_email__&quot; href=&quot;/cdn-cgi/l/email-protection&quot; data-cfemail=&quot;6f220e06012f235c415e&quot;&gt;[email&amp;#160;protected]&lt;/a&gt;&lt;script cf-hash='f9e31' type=&quot;text/javascript&quot;&gt;\n/* &lt;![CDATA[ */!function(){try{var t=&quot;currentScript&quot;in document?document.currentScript:function(){for(var t=document.getElementsByTagName(&quot;script&quot;),e=t.length;e--;)if(t[e].getAttribute(&quot;cf-hash&quot;))return t[e]}();if(t&amp;&amp;t.previousSibling){var e,r,n,i,c=t.previousSibling,a=c.getAttribute(&quot;data-cfemail&quot;);if(a){for(e=&quot;&quot;,r=parseInt(a.substr(0,2),16),n=2;a.length-n;n+=2)i=parseInt(a.substr(n,2),16)^r,e+=String.fromCharCode(i);e=document.createTextNode(e),c.parentNode.replaceChild(e,c)}}}catch(u){}}();/* ]]&gt; */&lt;/script&gt;\nFormat settings, CABAC                   : Yes\nFormat settings, ReFrames                : 3 frames\nCodec ID                                 : avc1\nCodec ID/Info                            : Advanced Video Coding\nDuration                                 : 3mn 20s\nDuration_LastFrame                       : -41ms\nBit rate                                 : 1 924 Kbps\nWidth                                    : 1 280 pixels\nHeight                                   : 720 pixels\nDisplay aspect ratio                     : 16:9\nFrame rate mode                          : Constant\nFrame rate                               : 23.976 fps\nColor space                              : YUV\nChroma subsampling                       : 4:2:0\nBit depth                                : 8 bits\nScan type                                : Progressive\nBits/(Pixel*Frame)                       : 0.087\nStream size                              : 46.0 MiB (94%)\nEncoded date                             : UTC 2014-03-07 16:11:44\nTagged date                              : UTC 2014-03-07 16:11:44\n\nAudio\nID                                       : 2\nFormat                                   : AAC\nFormat/Info                              : Advanced Audio Codec\nFormat profile                           : LC\nCodec ID                                 : 40\nDuration                                 : 3mn 20s\nBit rate mode                            : Variable\nBit rate                                 : 126 Kbps\nChannel(s)                               : 2 channels\nChannel positions                        : Front: L R\nSampling rate                            : 44.1 KHz\nCompression mode                         : Lossy\nStream size                              : 3.00 MiB (6%)\nEncoded date                             : UTC 2014-03-07 16:11:05\nTagged date                              : UTC 2014-03-07 16:11:05\n\nShared By Sbyky\n","torrent":{"xt":"urn:btih:274f65335e5ca4ae2373fdb6890db02303b889cd","amp;dn":"Paramore+-+Monster+%5BMusic+Video%5D+720p+%5BSbyky%5D","amp;tr":["udp%3A%2F%2Ftracker.openbittorrent.com%3A80","udp%3A%2F%2Fopen.demonii.com%3A1337","udp%3A%2F%2Ftracker.coppersurfer.tk%3A6969","udp%3A%2F%2Fexodus.desync.com%3A6969"],"infoHash":"274f65335e5ca4ae2373fdb6890db02303b889cd","infoHashBuffer":{"type":"Buffer","data":[39,79,101,51,94,92,164,174,35,115,253,182,137,13,176,35,3,184,137,205]},"announce":[],"urlList":[]}}